<?xml version="1.0" standalone="no"?>
<!DOCTYPE svg PUBLIC "-//W3C//DTD SVG 20010904//EN"
 "http://www.w3.org/TR/2001/REC-SVG-20010904/DTD/svg10.dtd">
<svg version="1.0" xmlns="http://www.w3.org/2000/svg"
 width="384.000000pt" height="384.000000pt" viewBox="0 0 384.000000 384.000000"
 preserveAspectRatio="xMidYMid meet">
<metadata>
Created by potrace 1.16, written by Peter Selinger 2001-2019
</metadata>
<g transform="translate(0.000000,384.000000) scale(0.100000,-0.100000)"
fill="#000000" stroke="none">
<path d="M0 1920 l0 -1920 1920 0 1920 0 0 1920 0 1920 -1920 0 -1920 0 0
-1920z m1202 1148 c8 -7 30 -51 48 -98 19 -47 37 -89 41 -95 4 -5 39 -86 77
-180 68 -162 101 -242 207 -490 26 -60 62 -146 80 -190 19 -44 54 -127 79
-185 25 -58 46 -111 46 -119 0 -13 -137 -278 -280 -541 -31 -58 -83 -154 -115
-215 -31 -60 -62 -116 -67 -122 -15 -18 -73 -16 -88 2 -12 15 -73 151 -245
550 -40 94 -92 213 -115 265 -23 52 -68 156 -99 230 -32 74 -67 155 -78 180
-12 25 -41 92 -66 150 -83 194 -305 704 -336 773 -36 80 -37 84 -13 90 9 3
218 5 463 6 343 1 449 -2 461 -11z m1696 -1103 c1 -605 0 -1110 -3 -1123 l-5
-22 -423 0 c-316 0 -426 3 -435 12 -9 9 -12 271 -12 1118 0 609 3 1110 7 1113
3 4 200 6 437 5 l431 -3 3 -1100z m-2447 -496 c131 -28 209 -108 245 -251 13
-51 14 -71 4 -122 -24 -124 -80 -197 -187 -247 -119 -55 -248 -31 -341 64 -68
69 -92 133 -92 240 0 65 5 92 24 133 44 95 124 162 220 185 46 11 69 10 127
-2z m3093 -4 c93 -28 170 -96 207 -182 27 -64 27 -203 -1 -266 -34 -77 -110
-151 -181 -177 -213 -77 -424 77 -422 310 0 89 20 147 69 207 85 103 209 144
328 108z"/>
</g>
</svg>
