<svg xmlns="http://www.w3.org/2000/svg" width="500" height="500" style="width:100%;height:100%;transform:translate3d(0,0,0);content-visibility:visible" viewBox="0 0 500 500"><defs><clipPath id="a"><path d="M0 0h500v500H0z"/></clipPath></defs><g clip-path="url(#a)"><g style="display:block"><path fill="#EBE6EE" d="M387.712 410.119H112.288c-12.375 0-22.407-10.032-22.407-22.407V112.288c0-12.375 10.032-22.407 22.407-22.407h275.424c12.375 0 22.407 10.032 22.407 22.407v275.424c0 12.375-10.032 22.407-22.407 22.407z"/><path fill="#EBE6EE" d="M10.057 137.712v-275.424c0-12.375 10.032-22.407 22.407-22.407h-42.521c-12.375 0-22.407 10.032-22.407 22.407v275.424c0 12.375 10.032 22.407 22.407 22.407h42.521c-12.375 0-22.407-10.032-22.407-22.407z" opacity=".5" style="mix-blend-mode:multiply" transform="translate(122.345 250)"/><path fill="#393346" d="M387.712 89.881H112.288c-12.375 0-22.407 10.032-22.407 22.407v28.965h320.238v-28.965c0-12.375-10.032-22.407-22.407-22.407z"/><path fill="#393346" d="M10.057-3.279c0-12.375 10.032-22.407 22.407-22.407h-42.521c-12.375 0-22.407 10.032-22.407 22.407v28.965h42.521V-3.279z" opacity=".5" style="mix-blend-mode:multiply" transform="translate(122.345 115.567)"/></g><g fill="none" stroke-linecap="round" stroke-linejoin="round" style="display:block"><path stroke="#E1CD0E" stroke-width="12" d="M177.864 115.567H178m-56.432 0h.136m28.012 0h.136"/><path stroke="#121330" stroke-width="7" d="M247.76 328.335H338m-167.996 0 52.648-52.649-52.648-52.649"/></g><g class="com" style="display:none"><path/><path/><path/><path/><path/><path/><path/><path/><path/><path/><path/><path/></g></g></svg>